<?xml version="1.0" encoding="utf-8"?>
<!-- Generator: Adobe Illustrator 23.0.6, SVG Export Plug-In . SVG Version: 6.00 Build 0)  -->
<svg version="1.1" id="Capa_1" xmlns="http://www.w3.org/2000/svg" xmlns:xlink="http://www.w3.org/1999/xlink" x="0px" y="0px"
	 viewBox="0 0 39.4 45.4" style="enable-background:new 0 0 39.4 45.4;" xml:space="preserve">
<path d="M19.7,45.4C8.8,45.4,0,36.6,0,25.7C0,15.5,7.8,7,17.9,6l-2-6l12.2,8.3l-12.2,8.3l1.9-5.8c-7.4,0.9-13.1,7.3-13.1,14.9
	c0,8.3,6.8,15,15,15s15-6.8,15-15c0-4.8-2.2-9.2-6-12l-0.4-0.3l2.8-3.8l0.4,0.3c5,3.8,7.9,9.5,7.9,15.8
	C39.5,36.6,30.6,45.4,19.7,45.4z"/>
</svg>
